<svg width="57" height="56" viewBox="0 0 57 56" fill="none" xmlns="http://www.w3.org/2000/svg">
<path d="M43.375 0H13.625C6.37626 0 0.5 5.87626 0.5 13.125V42.875C0.5 50.1237 6.37626 56 13.625 56H43.375C50.6237 56 56.5 50.1237 56.5 42.875V13.125C56.5 5.87626 50.6237 0 43.375 0Z" fill="#242938"/>
<mask id="mask0_141_476" style="mask-type:luminance" maskUnits="userSpaceOnUse" x="13" y="6" width="31" height="44">
<path d="M13.8438 6.125H43.0163V49.875H13.8438V6.125Z" fill="white"/>
</mask>
<g mask="url(#mask0_141_476)">
<path d="M21.1385 49.8749C25.1635 49.8749 28.4301 46.6083 28.4301 42.5833V35.2915H21.1385C17.1135 35.2915 13.8467 38.5583 13.8467 42.5833C13.8467 46.6083 17.1135 49.8749 21.1385 49.8749Z" fill="#0ACF83"/>
<path d="M13.8467 28.0001C13.8467 23.9751 17.1135 20.7085 21.1385 20.7085H28.4301V35.2917H21.1385C17.1135 35.2917 13.8467 32.0251 13.8467 28.0001Z" fill="#A259FF"/>
<path d="M13.8467 13.4166C13.8467 9.39159 17.1135 6.125 21.1385 6.125H28.4301V20.7084H21.1385C17.1135 20.7084 13.8467 17.4416 13.8467 13.4166Z" fill="#F24E1E"/>
<path d="M28.4302 6.125H35.7218C39.7468 6.125 43.0136 9.39159 43.0136 13.4166C43.0136 17.4416 39.7468 20.7084 35.7218 20.7084H28.4302V6.125Z" fill="#FF7262"/>
<path d="M43.0136 28.0001C43.0136 32.0251 39.7468 35.2917 35.7218 35.2917C31.6968 35.2917 28.4302 32.0251 28.4302 28.0001C28.4302 23.9751 31.6968 20.7085 35.7218 20.7085C39.7468 20.7085 43.0136 23.9751 43.0136 28.0001Z" fill="#1ABCFE"/>
</g>
</svg>
