<svg width="56" height="56" viewBox="0 0 56 56" fill="none" xmlns="http://www.w3.org/2000/svg">
<g clip-path="url(#clip0_158_1559)">
<path d="M42.875 0H13.125C5.87626 0 0 5.87626 0 13.125V42.875C0 50.1237 5.87626 56 13.125 56H42.875C50.1237 56 56 50.1237 56 42.875V13.125C56 5.87626 50.1237 0 42.875 0Z" fill="#DE4C36"/>
<mask id="mask0_158_1559" style="mask-type:luminance" maskUnits="userSpaceOnUse" x="6" y="6" width="44" height="44">
<path d="M6.125 6.125H49.875V49.875H6.125V6.125Z" fill="white"/>
</mask>
<g mask="url(#mask0_158_1559)">
<path d="M49.0492 26.0522L29.9482 6.9512C29.5544 6.55692 29.0524 6.28839 28.5058 6.17963C27.9593 6.07086 27.3928 6.12676 26.878 6.34023C26.5362 6.48187 26.2258 6.68949 25.9643 6.9512L21.9994 10.916L27.0307 15.9473C28.201 15.5371 29.5409 15.8174 30.4732 16.7499C30.917 17.1946 31.2268 17.7551 31.3673 18.3674C31.5077 18.9798 31.4731 19.6193 31.2674 20.2129L36.1169 25.0624C37.2901 24.6577 38.6435 24.9187 39.5799 25.858C40.049 26.3269 40.3685 26.9244 40.4978 27.575C40.6271 28.2255 40.5605 28.8998 40.3064 29.5124C39.9658 30.3338 39.3129 30.9863 38.4913 31.3265C37.6697 31.6667 36.7467 31.6667 35.9251 31.3265C35.5182 31.1579 35.1485 30.9109 34.8372 30.5994C33.8529 29.615 33.6096 28.1658 34.1073 26.953L29.5846 22.4304V34.3319C29.9129 34.4943 30.2129 34.7085 30.4732 34.9663C31.1019 35.595 31.4551 36.4478 31.4551 37.337C31.4551 38.2262 31.1019 39.079 30.4732 39.7077C29.8444 40.3365 28.9916 40.6897 28.1025 40.6897C27.2133 40.6897 26.3605 40.3365 25.7318 39.7077C25.2625 39.239 24.9428 38.6416 24.8133 37.9911C24.6838 37.3407 24.7502 36.6664 25.0042 36.0537C25.1728 35.6469 25.42 35.2774 25.7318 34.9663C26.0557 34.6436 26.4154 34.3989 26.8297 34.2348V22.2226C26.4186 22.0545 26.0453 21.8059 25.7318 21.4913C25.261 21.0211 24.941 20.4213 24.8124 19.7685C24.6839 19.1156 24.7526 18.4393 25.0099 17.8257L20.0471 12.866L6.94945 25.9499C6.55515 26.3439 6.28659 26.846 6.17776 27.3927C6.06893 27.9394 6.12471 28.5061 6.33804 29.0211C6.47982 29.363 6.68757 29.6737 6.94945 29.9353L26.0518 49.0348C26.3133 49.2964 26.6238 49.504 26.9655 49.6457C27.6559 49.9315 28.4315 49.9315 29.1219 49.6457C29.4637 49.504 29.7741 49.2964 30.0357 49.0348L49.0492 30.0514C49.311 29.7898 49.5187 29.4792 49.6604 29.1373C49.8021 28.7954 49.8751 28.4289 49.8752 28.0588C49.8752 27.6887 49.8023 27.3222 49.6605 26.9802C49.5188 26.6383 49.3111 26.3276 49.0492 26.066" fill="white"/>
</g>
</g>
<defs>
<clipPath id="clip0_158_1559">
<rect width="56" height="56" fill="white"/>
</clipPath>
</defs>
</svg>
