<svg width="66" height="66" viewBox="0 0 66 66" fill="none" xmlns="http://www.w3.org/2000/svg">
<path d="M57.0498 8.89296C55.0646 6.90775 52.6759 5.9165 49.8809 5.9165H16.0619C13.2669 5.9165 10.8782 6.90775 8.89296 8.89296C6.90775 10.8782 5.9165 13.2669 5.9165 16.0619V49.8809C5.9165 52.6759 6.90775 55.0646 8.89296 57.0498C10.8782 59.035 13.2669 60.0263 16.0619 60.0263H23.954C24.4686 60.0263 24.8559 60.0073 25.1159 59.9721C25.4184 59.9115 25.6914 59.7501 25.8905 59.5144C26.1478 59.2436 26.2778 58.8509 26.2778 58.3363L26.2588 55.9394C26.248 54.4119 26.2425 53.204 26.2425 52.3103L25.43 52.4511C24.9155 52.5459 24.2655 52.5865 23.4773 52.5757C22.6559 52.5605 21.837 52.4781 21.029 52.3292C20.1688 52.1704 19.3591 51.8083 18.6673 51.273C17.9428 50.7249 17.4025 49.9691 17.1182 49.1063L16.7661 48.2938C16.4693 47.6529 16.0965 47.05 15.6557 46.4982C15.1519 45.84 14.64 45.3959 14.1228 45.1603L13.879 44.9842C13.709 44.8625 13.5544 44.7206 13.4186 44.5617C13.2888 44.4142 13.182 44.2481 13.1017 44.0688C13.0313 43.9036 13.0909 43.7682 13.2778 43.6625C13.4673 43.5542 13.8059 43.5028 14.3015 43.5028L15.0057 43.6111C15.4742 43.7032 16.0565 43.9848 16.7471 44.4534C17.446 44.9299 18.0299 45.5563 18.4561 46.2869C18.9978 47.2484 19.6478 47.9823 20.4115 48.4888C21.1753 48.9925 21.9444 49.2471 22.719 49.2471C23.4936 49.2471 24.1625 49.1875 24.7286 49.0711C25.276 48.9579 25.8079 48.7797 26.313 48.5403C26.5242 46.9694 27.0984 45.7561 28.0382 44.9111C26.8204 44.7917 25.6136 44.5798 24.428 44.2773C23.2709 43.9595 22.1582 43.4982 21.1157 42.9042C20.0249 42.3104 19.0614 41.5079 18.28 40.5425C17.5298 39.6028 16.9123 38.3705 16.4303 36.8457C15.9509 35.3182 15.7098 33.555 15.7098 31.559C15.7098 28.718 16.6361 26.2994 18.4913 24.3007C17.6246 22.1665 17.7059 19.7696 18.7378 17.1182C19.4203 16.9042 20.4305 17.064 21.7684 17.5921C23.1063 18.1203 24.0867 18.5725 24.7096 18.9463C25.3325 19.3255 25.8309 19.6423 26.2073 19.8996C28.4091 19.2869 30.6846 18.9789 32.97 18.9842C35.2965 18.9842 37.5498 19.2903 39.7355 19.8996L41.0734 19.0546C42.1025 18.4367 43.188 17.918 44.3153 17.5055C45.5611 17.0342 46.509 16.9069 47.1698 17.1182C48.2261 19.7723 48.3182 22.1665 47.4488 24.3034C49.304 26.2994 50.233 28.718 50.233 31.5617C50.233 33.5578 49.9919 35.3263 49.5098 36.8619C49.0305 38.4003 48.4075 39.6325 47.6438 40.5615C46.8487 41.5145 45.8812 42.3093 44.7919 42.9042C43.6544 43.538 42.5494 43.9957 41.4796 44.2773C40.2941 44.5808 39.0872 44.7936 37.8694 44.9138C39.0882 45.97 39.7003 47.6357 39.7003 49.9134V58.3363C39.7003 58.7344 39.7571 59.0567 39.8763 59.3032C39.9311 59.4219 40.0092 59.5284 40.1059 59.6164C40.2027 59.7043 40.3162 59.7719 40.4396 59.815C40.6996 59.9071 40.9271 59.9667 41.1275 59.9884C41.328 60.0155 41.615 60.0236 41.9888 60.0236H49.8809C52.6759 60.0236 55.0646 59.0323 57.0498 57.0471C59.0323 55.0646 60.0263 52.6732 60.0263 49.8782V16.0619C60.0263 13.2669 59.035 10.8782 57.0498 8.89296Z" fill="black"/>
</svg>
