<svg width="56" height="56" viewBox="0 0 56 56" fill="none" xmlns="http://www.w3.org/2000/svg">
<rect width="56" height="56" rx="12" fill="black" fill-opacity="0.95"/>
<g clip-path="url(#clip0_141_507)">
<path d="M14.3351 26.034C13.1844 26.5691 10.1393 28.9779 9.55279 29.6915C8.94371 30.4052 8.76322 29.2901 9.39474 27.439C9.89093 25.9447 11.1544 23.9151 13.2747 22.1756C14.5152 21.172 17.2448 19.7223 18.9139 18.8748C19.2524 18.6962 23.6285 16.8675 27.531 15.953C27.8694 15.8638 27.125 16.5106 27.0121 16.8675C26.4256 18.5625 14.7183 25.8332 14.7183 25.8332L14.3351 26.034ZM30.8243 46.4855C31.0272 47.6899 30.8469 47.779 29.5838 47.9352C28.3205 48.0914 27.3956 47.6229 27.0573 47.3108C26.7188 46.9982 26.6513 46.3071 26.9896 45.6826C27.1928 45.2812 27.3958 45.1474 27.5086 44.6567C27.6213 44.1884 27.7116 44.0768 27.8018 43.8985C27.8919 43.7422 27.9147 43.5859 27.9371 42.4933C27.9597 41.4005 27.9371 39.3486 28.05 38.4789C28.1629 37.5868 32.0652 38.8802 32.0652 38.8802C32.0652 38.8802 31.1403 41.1551 30.8922 41.7126C30.6441 42.2703 30.6667 43.3408 30.6667 43.5637C30.6667 43.7867 30.5763 44.2328 30.5086 44.2551C30.4409 44.2774 30.7344 44.8573 30.5989 45.1919C30.5086 45.5041 30.8019 46.3071 30.8243 46.4855ZM32.3131 12.3846C32.1777 11.5371 32.3131 9.86419 32.4936 9.59683C33.0576 8.83837 36.0351 8.74921 36.6667 9.64135C36.9374 10.0428 36.9148 10.9794 36.8698 11.5816C36.8248 12.1838 36.6667 13.4774 36.6442 13.9013C36.6217 14.2135 33.3508 14.704 32.629 13.8566C32.4259 13.6337 32.3131 12.3846 32.3131 12.3846ZM38.945 44.3219C40.3211 45.3035 41.3812 45.4818 42.0804 45.8386C42.7797 46.1956 42.5993 46.887 41.4263 47.0877C40.4788 47.2661 38.9902 46.9092 37.9976 46.9092C37.0051 46.9092 34.7945 47.0208 34.208 46.6194C33.5313 46.151 33.8244 45.2812 33.8244 45.2812C34.005 44.7906 34.4559 43.6975 34.3206 42.8055C34.1853 41.9135 34.0048 41.4228 33.6665 40.5976C33.3281 39.7725 33.0801 37.7429 33.396 37.6313C33.7118 37.5196 33.6215 37.6313 34.0275 37.7206C34.4335 37.8096 34.8847 37.9435 35.7644 37.9435C36.6442 37.9435 37.6141 37.8096 37.9525 37.7428C38.2909 37.6759 38.5616 37.6088 38.4487 38.3003C38.3359 38.9917 37.9976 40.2852 37.9751 41.289C37.9525 42.2926 37.9525 43.4524 38.0202 43.653C38.0878 43.8538 38.5841 44.0768 38.945 44.3221" fill="black" fill-opacity="0.95"/>
<path d="M34.1177 14.6149C31.6365 16.7338 26.8316 17.3134 19.7035 20.0344C17.8764 20.7258 13.0041 22.7999 11.8311 24.9634C15.7785 22.7109 17.2448 25.8109 17.5606 29.0001C17.8537 31.9887 19.3651 33.55 23.245 33.4606C27.2377 33.3715 28.4557 35.6686 29.561 38.3673C31.7039 28.041 35.1327 26.0339 37.3433 24.272C42.0353 20.5027 36.2606 13.8566 34.1177 14.6149Z" fill="#88CE02"/>
<path d="M34.1177 14.615C28.1626 16.6668 22.2751 17.1797 15.35 21.3948C13.7034 22.3985 10.2295 24.6733 9.55273 29.0224C12.0791 26.2568 17.9214 22.7777 25.0721 20.5698C28.6813 19.4546 31.3206 18.7187 34.5237 17.4918C34.2982 16.0644 34.2982 15.5069 34.1177 14.6147" fill="#88CE02"/>
<path d="M41.7193 26.8368C41.7193 26.8368 41.2907 28.2865 40.4336 28.755C40.4336 28.755 39.802 28.978 38.5389 28.2866C38.1779 28.086 37.9072 27.3946 37.9296 27.1714C37.9522 26.6361 38.2906 26.3908 38.2906 26.3908C38.2906 26.3908 38.6516 25.7886 39.0801 25.811C39.5088 25.8333 40.2306 25.9001 40.4563 25.6993C40.6591 25.4764 41.7645 26.1008 41.7193 26.8368ZM32.5159 12.8085C32.5159 12.8085 32.4258 13.9459 32.2678 14.6596C32.2453 14.7935 31.5686 14.8602 31.0723 15.061C32.0196 17.7373 37.7267 17.715 38.4713 16.3991C38.1103 16.1539 37.3884 15.7747 37.0502 15.6409C36.7116 15.5069 36.7342 15.5293 36.7116 14.9049C36.689 14.2805 36.6439 13.1207 36.5987 12.8085C36.5536 12.4962 33.0573 12.4961 32.5159 12.8085Z" fill="black" fill-opacity="0.95"/>
<path d="M32.7418 12.8084C32.7418 12.8084 32.7418 13.4551 32.674 14.0795C32.6517 14.3696 32.6291 14.5479 32.584 14.7709C32.5614 14.9048 33.351 15.4399 33.5765 16.622C34.6593 19.0084 37.1632 17.8264 38.2007 16.689C37.8399 16.4436 37.2534 16.1091 36.5767 15.8415C36.2383 15.7075 36.3961 15.4177 36.3736 14.7933C36.3511 14.1688 36.2608 13.2544 36.2157 12.9198C36.1707 12.5852 33.2832 12.496 32.7418 12.8084Z" fill="#EFEFEF"/>
<path d="M32.516 12.8085C32.516 12.8085 32.4934 13.2099 32.4258 13.6783C32.7189 13.9681 33.1025 14.3697 33.3958 14.615C33.5988 14.7936 34.095 14.7713 34.5463 14.7713C34.9523 14.7713 35.3131 14.8158 35.471 14.7266C35.8322 14.548 36.3508 14.1021 36.644 13.7675C36.6216 13.3661 36.599 12.987 36.5766 12.8085C36.5537 12.4961 33.0573 12.4961 32.516 12.8085Z" fill="black" fill-opacity="0.95"/>
<path d="M34.5687 14.5036C34.2979 14.5036 33.9821 14.4812 33.734 14.4366C33.6211 14.4143 33.5085 14.3474 33.4182 14.3028C33.2603 14.1912 33.1023 14.0575 32.9221 13.9236C32.561 13.6559 32.5386 13.4998 32.5386 13.4331C32.6965 12.0279 32.4934 10.846 32.4934 10.846C32.4934 10.846 32.3354 10.2436 33.1927 10.0875C34.0498 9.93137 34.5686 9.90918 34.5686 9.90918C34.5686 9.90918 35.1101 9.90918 35.9445 10.0875C36.8018 10.2438 36.6439 10.846 36.6439 10.846C36.6439 10.846 36.4409 12.0279 36.5988 13.4331C36.5988 13.4998 36.5763 13.6559 36.2153 13.9236C35.8995 14.1467 35.6514 14.3919 35.4033 14.4366C35.1551 14.4812 34.8393 14.5036 34.5687 14.5036Z" fill="black" fill-opacity="0.95"/>
<path d="M34.5689 9.3291C33.0801 9.3291 32.7868 9.73053 32.3583 10.1766C32.2681 10.2881 32.3357 10.9571 32.4937 12.3846H32.6967C32.6967 12.3846 32.5612 11.9831 32.5838 11.5147C32.6064 11.0464 32.6967 11.0687 32.6289 10.9571C32.5386 10.8232 32.3583 10.6002 32.7644 10.3772C33.1703 10.1543 33.8019 10.5557 34.5689 10.578C35.3358 10.5557 35.99 10.1543 36.396 10.3772C36.802 10.6002 36.6215 10.8233 36.5315 10.9571C36.4412 11.0911 36.5539 11.0464 36.5765 11.5147C36.5991 11.9829 36.4636 12.3846 36.4636 12.3846H36.6667C36.802 10.9573 36.8922 10.3327 36.8246 10.2211C36.4411 9.73053 36.0576 9.35129 34.5689 9.3291ZM41.7196 26.9037C41.7196 26.9037 41.291 28.2641 40.4565 28.7325C40.2759 28.6432 40.2985 28.5095 40.1404 28.3087C40.0953 28.2419 39.9375 28.1971 39.8699 28.1303C39.8021 28.0633 39.8247 27.9518 39.7118 27.8626C39.6216 27.7733 39.554 27.8403 39.4637 27.7733C39.3737 27.6843 39.3508 27.5727 39.2834 27.506C39.2382 27.4613 39.0577 27.439 39.0127 27.3944C38.8998 27.2828 37.9074 27.0821 37.9526 26.859C38.0426 26.5244 38.2233 26.2791 38.2233 26.2791C38.2233 26.2791 38.6519 25.6547 39.0803 25.6769C39.5089 25.6993 39.9149 25.7885 40.1405 25.5878C40.3888 25.3647 41.7874 26.19 41.7196 26.9035" fill="black" fill-opacity="0.95"/>
<path d="M38.7872 17.0456C38.7872 17.0456 40.2083 16.711 41.1782 17.6255C42.1483 18.5622 42.0804 19.7219 41.7873 20.4356C42.0354 20.7255 42.4866 21.5283 42.1483 22.4875C43.6371 23.7362 42.9829 25.6545 41.652 26.9257C41.652 26.9257 41.3361 25.766 40.073 25.699C40.1181 25.253 38.9 24.8961 39.4639 23.7364C38.6067 23.5356 38.6293 22.9557 38.4939 22.242C38.3811 21.5283 38.7872 17.0456 38.7872 17.0456Z" fill="black" fill-opacity="0.95"/>
<path d="M38.2682 17.6703C38.2682 17.6703 39.9148 16.8451 40.8848 17.7819C41.8548 18.7185 41.584 19.7443 41.2908 20.458C41.5389 20.7478 42.1254 21.5733 41.7644 22.5544C41.6967 22.7775 41.2005 22.7775 40.8395 23.3574C41.7417 22.8443 42.3058 22.9782 42.5089 23.6249C42.8247 24.6285 42.1253 25.8328 41.5163 26.502C41.5163 26.4797 41.4938 26.4573 41.4938 26.435C41.4035 26.7697 41.2907 27.4163 40.614 28.13C40.2756 28.4869 40.0049 28.4424 39.6215 28.3531C39.1703 28.2415 39.0124 28.0407 38.3809 27.7064C38.0199 27.5056 38.2229 27.2602 38.2229 27.0595C38.2229 27.0149 38.268 26.9479 38.3358 26.8589C38.3809 26.7473 38.5162 26.569 38.7192 26.3682C38.7192 26.3682 39.0124 25.9667 39.4412 25.9889C39.8699 26.0111 40.3208 25.9222 40.4337 25.8106C40.4337 25.0301 39.5315 25.0076 39.8472 23.6696C39.8697 23.6026 39.9826 23.491 40.3433 23.4465C39.802 23.3348 39.5539 23.3125 39.1703 22.9559C38.8997 22.7106 38.6967 22.3983 38.629 21.9969C38.4937 21.3055 38.2682 17.6703 38.2682 17.6703Z" fill="#EFEFEF"/>
<path d="M33.5085 16.2652C33.3731 16.0866 32.6739 15.1946 31.343 14.8378C30.9595 14.7262 30.7114 15.0385 30.3281 15.2616C30.2152 15.1946 29.7189 14.9716 29.4482 15.1276C29.1775 15.2836 28.9972 15.4399 28.7264 15.5514C28.5909 15.4844 28.2302 15.4844 27.9369 15.596C27.6437 15.6852 27.1925 15.8858 26.7639 16.4657C26.4932 17.4248 31.546 16.711 31.546 16.711L33.5085 16.2652Z" fill="black" fill-opacity="0.95"/>
<path d="M33.5538 16.2654C32.8318 16.02 32.9447 15.1948 31.3431 15.061C31.0273 15.0387 30.8242 15.284 30.5987 15.4401C30.7116 15.5517 30.8242 15.73 30.8919 15.9084C30.6889 15.6855 30.328 15.3954 29.9669 15.3285C29.6286 15.2618 29.403 15.5071 29.0421 15.6855C29.1097 15.7522 29.1775 15.8638 29.2676 15.9978C28.9517 15.797 28.7263 15.7302 28.2977 15.8862C28.0045 15.9753 27.4405 16.2208 27.0119 16.823C26.7413 17.7819 31.5685 16.7113 31.5685 16.7113L33.5538 16.2654Z" fill="#88CE02"/>
<path d="M37.7946 16.6222C37.7946 16.6222 37.7946 16.3769 37.772 16.154C37.772 16.1093 37.5915 15.9977 37.5915 15.9532L37.5464 15.9085C37.5464 15.9085 37.9074 15.7079 38.178 15.8194C38.4712 15.9087 38.6291 16.2878 38.6291 16.2878C39.148 16.1094 39.193 16.3101 39.4412 16.5777C39.9827 16.4661 40.0502 16.6669 40.3887 17.1576C40.3887 17.1576 39.9827 17.0906 39.1931 17.2244C38.4261 17.3358 37.7946 16.5999 37.7946 16.6222Z" fill="black" fill-opacity="0.95"/>
<path d="M37.7042 16.5106C37.7042 16.5106 37.8396 16.3989 37.7944 16.3766C38.0425 16.2427 38.3809 16.0868 38.5388 16.5106C39.0576 16.332 39.1253 16.5775 39.3734 16.8451C40.005 16.5552 40.05 16.9119 40.0953 17.0681C39.8922 17.0681 39.5991 17.0904 39.1929 17.135C38.4261 17.2466 37.6817 16.4881 37.7042 16.5106Z" fill="#88CE02"/>
<path d="M30.0349 15.9531C30.0349 15.9531 31.3206 16.3991 32.4034 16.3321C33.4863 16.2431 35.3359 16.1538 36.3283 16.7337C36.3283 16.7337 37.3434 16.3767 38.2909 16.622C39.2384 16.8673 40.9753 18.4732 40.4565 20.1681C40.4114 20.2798 40.1181 20.4581 39.7797 20.5697C39.7797 20.5697 39.9603 21.328 39.6444 21.9524C39.3286 22.5546 38.6293 23.7144 38.6067 25.3202C38.5841 25.5878 38.5391 26.1454 38.494 26.4129C36.7345 26.3462 34.0276 25.6992 31.3659 25.744C31.3884 25.454 31.4109 25.2756 31.4336 24.9856H31.5011C31.3656 24.2496 31.3206 23.8704 31.1853 23.313C30.3281 22.7777 29.4257 22.1532 28.6589 20.9711C27.9145 19.789 30.0349 15.9531 30.0349 15.9531ZM38.7421 27.9965C38.7421 27.9965 40.1406 32.9478 38.494 35.022C38.494 35.022 38.7421 35.981 38.1781 37.007C38.0878 37.4529 37.9749 37.8544 37.9075 38.3004C37.6142 40.1515 37.1179 40.932 36.9826 43.8983L35.6291 43.8761C35.6291 43.8761 35.471 41.735 34.9974 40.5976C34.7269 39.9509 33.6665 39.0809 33.7118 38.2112C33.7569 37.5422 33.8921 36.9846 35.0427 36.0924C35.1329 34.7989 33.8245 33.5722 34.0276 28.7548L38.7421 27.9965Z" fill="black" fill-opacity="0.95"/>
<path d="M38.3358 27.7957C38.6968 30.0706 39.5314 33.4383 38.02 35.0887C38.0876 35.401 38.1327 35.8471 38.0425 36.3598C37.9974 36.6275 37.9071 36.9174 37.7944 37.2297C37.5688 37.7649 37.4785 38.5454 37.4109 39.0138C37.1176 40.8649 37.1176 40.9544 36.9823 43.9206L35.6288 43.8983C35.6288 43.8983 35.4707 41.7572 34.9971 40.6198C34.7266 39.9731 34.1625 39.4155 34.1175 38.5457C34.0724 37.8766 34.5461 36.5386 35.6741 36.5831C35.6063 33.8845 34.343 34.4197 34.0048 28.7994L38.3358 27.7957ZM30.0346 15.9531C30.0346 15.9531 30.5309 16.1093 31.0723 16.1538C31.6136 16.1984 32.2002 16.1538 32.7189 16.1314C33.8017 16.0423 35.3355 15.9308 36.3506 16.5107C36.3506 16.5107 36.9146 16.3321 37.5238 16.3767C37.7944 16.3991 38.0651 16.622 38.3809 16.7113C39.3734 16.9566 40.3208 18.5846 39.8921 20.0568C39.8469 20.1684 39.5312 20.0568 39.1702 20.1684C39.2378 20.4805 39.2831 21.1942 38.9221 21.9526C38.5387 22.7109 38.0424 23.6922 38.1326 25.5656C35.7641 25.454 34.7039 25.298 32.3579 25.1865C32.1548 24.3612 32.0195 23.5359 31.9969 23.1123C32.3129 22.9561 32.4931 22.8225 32.7415 22.5548C32.0648 22.6664 31.794 22.6217 31.3878 22.3985C30.9818 22.1755 30.26 21.4618 29.899 20.9936C29.854 20.9489 29.606 21.6848 29.0421 21.7073C28.8389 21.4173 29.6961 20.592 29.5381 20.2799C28.9744 19.1423 30.0346 15.9531 30.0346 15.9531Z" fill="#EFEFEF"/>
<path d="M38.5161 25.9449C38.5161 25.9449 38.5613 26.7477 38.5613 26.9484C38.5613 27.1715 38.7419 27.8404 38.7643 28.1528C38.5162 28.5765 37.4335 29.5355 35.471 29.8924C33.531 30.2938 30.9595 27.283 30.9595 27.283C31.0272 26.993 31.2527 26.1455 31.4106 25.6994C31.4332 25.6548 31.4784 25.5433 31.4784 25.4988C31.6814 25.2089 38.5161 25.9449 38.5161 25.9449Z" fill="black" fill-opacity="0.95"/>
<path d="M38.0201 26.0118C38.0201 26.5692 38.1103 26.9708 38.1782 27.3275C38.2908 27.9744 38.4712 28.3981 38.4712 28.8219C38.4712 30.1153 36.7568 29.8924 35.313 29.937C33.3732 30.3386 31.7266 27.3277 31.7266 27.3277C31.8618 26.8146 31.9521 26.2349 32.155 25.744C32.1776 25.4766 32.2228 25.142 32.2453 24.9858C34.9972 24.9858 36.9372 25.1421 38.0652 25.2533C38.1103 25.4987 38.0652 25.9225 38.0201 26.0117" fill="#EFEFEF"/>
<path d="M35.8546 28.8883C35.8546 28.8883 34.659 26.2566 31.0723 27.0374C30.2152 29.4236 29.0647 32.167 29.8092 35.1332C29.0647 36.1368 28.2075 36.6945 28.2075 38.5455C28.2075 40.3965 28.2978 40.7089 28.2978 40.7089L30.937 40.8428C30.937 40.8428 31.7941 39.75 32.1324 38.568C32.2227 38.2332 32.313 37.6312 32.2453 36.9398C32.3355 36.806 32.7189 36.4939 32.7642 35.8917C32.7642 35.8917 34.0498 35.2226 34.7944 33.5945C35.4937 32.1222 35.3131 30.8509 35.8545 28.8882" fill="black" fill-opacity="0.95"/>
<path d="M35.8549 28.8884C35.7872 28.6432 34.8849 26.2345 31.5465 26.948C29.5839 32.1223 30.3057 34.2635 30.599 35.2C29.2679 36.8727 28.659 37.2296 28.9298 40.6196H30.6893C31.5013 39.3485 31.6818 38.8799 31.7268 37.2073C31.7268 37.1403 31.4789 37.3412 31.2983 37.5642C31.4337 36.8728 31.8171 36.739 32.1104 36.3153C32.2457 36.1367 32.3585 35.8692 32.3585 35.5123C33.9375 34.4641 34.524 33.1482 34.8623 31.7877C35.1331 30.8511 35.4488 29.3122 35.8548 28.8883" fill="#EFEFEF"/>
<path d="M30.2828 25.2979C30.2828 25.2979 30.8919 25.3202 31.4334 25.4986C31.9523 25.677 31.9523 25.7884 32.1552 26.0115C32.3583 26.2348 32.8545 26.5691 32.7643 26.9037C32.7191 27.0821 32.6064 27.1266 32.4485 27.2828C32.3807 27.3498 31.8844 27.885 31.7718 27.9518C31.704 27.9965 31.6137 28.0634 31.5461 28.1081L31.2079 28.3311C30.9822 28.4427 30.8243 28.5095 30.5762 28.4872C30.5762 28.4872 30.0123 28.4649 29.6513 28.0858C29.6513 28.0858 29.6061 27.9072 29.6964 27.8181C29.6964 27.8181 29.2227 27.4166 29.0874 27.149C28.9519 26.8815 28.9519 26.5024 29.0422 26.3016C29.0874 26.1007 29.967 25.5431 30.2828 25.2979ZM30.8469 46.9984L30.7791 47.5561C30.7791 47.5561 30.5762 47.8014 29.0649 47.7791C27.5309 47.7567 27.1249 47.2885 26.9896 47.043L26.8994 46.4632C26.8994 46.4632 27.1927 46.0394 27.2604 46.0394C27.7566 46.0841 29.4485 46.7531 30.6215 46.9316C30.734 46.9316 30.7566 46.9759 30.8469 46.9984ZM34.1176 45.861C34.1176 46.1063 34.0951 46.1063 34.0951 46.3517C34.3657 46.5523 35.0425 46.6639 36.3282 46.6415C38.2004 46.5968 39.9374 47.1992 42.0577 46.8421L42.0803 46.4407L41.8773 46.4185L34.3657 45.8163L34.1176 45.861Z" fill="black" fill-opacity="0.95"/>
<path d="M35.7645 46.6416H36.3284C37.5467 46.5969 38.6971 46.8646 39.9376 46.9315C40.5918 46.9092 41.4038 46.7529 41.3362 46.2847L34.93 45.7493C34.5464 46.1731 34.8397 46.53 35.7645 46.6416ZM28.4108 37.252C28.6138 37.386 29.9899 38.1888 32.223 38.0772C32.1779 38.501 32.2004 39.3263 31.2079 40.7758C30.7116 41.4895 30.2829 42.7386 30.1929 44.3221C30.2154 44.679 30.4184 44.9911 30.1477 45.4595C30.238 45.7493 30.5989 46.3293 30.7794 46.6861C30.9597 47.043 31.05 47.4444 29.8543 47.4668C28.6363 47.4891 26.6737 47.3551 26.9445 46.4186C27.08 45.9279 27.4634 45.415 27.5086 45.2142C27.5537 45.0134 27.5537 44.4114 27.937 44.0098C28.2754 42.8947 28.1627 41.8242 28.0951 40.8206C27.9822 39.7722 27.9596 38.0997 28.4108 37.2522M30.5087 19.0754C32.1103 16.9565 30.7568 15.2617 28.1854 15.7745C27.1476 15.9752 26.1101 16.6891 26.0423 17.9825C25.7039 18.0271 24.9371 18.0717 24.5535 19.4545C24.2604 20.525 24.1025 20.7256 23.5836 21.2609C23.2452 21.6401 23.6061 22.4206 23.8542 22.9784C24.6888 24.8964 27.2604 25.0747 28.9973 26.5244C29.5838 26.3683 30.1929 25.7216 30.3732 25.298C28.907 23.5804 29.2228 22.9115 28.6363 22.0193C29.2679 21.7961 30.7116 20.9267 30.5087 19.0754Z" fill="black" fill-opacity="0.95"/>
<path d="M30.193 18.9416C30.283 18.8077 30.441 18.5179 30.5088 18.4062C30.5314 18.3839 30.7795 18.8077 30.802 18.7855C31.411 17.804 31.5689 16.3767 30.8696 16.2429C30.7116 16.2205 30.4185 16.1537 30.1704 16.0643C29.7192 15.9083 29.3132 15.9083 28.5912 16.0421C27.5989 16.2205 26.6064 16.9342 26.6064 17.9602C26.6064 18.0271 27.3055 18.2278 27.5085 19.0531C27.1701 18.5846 26.5836 18.0717 25.8842 18.5177C25.14 18.986 25.5234 20.0566 24.5309 21.1716C24.1925 21.5508 24.2376 21.9969 24.5986 22.889C25.185 24.2941 27.9596 25.0524 29.471 26.3905C29.8318 26.2343 30.0799 25.8776 30.2604 25.6099C29.2453 24.5617 28.8393 23.5804 28.5461 22.8667C28.1852 22.0415 27.7791 21.5732 26.9895 20.9485C27.3957 21.1047 27.7116 21.2607 27.8918 21.3945C28.0948 21.5285 28.388 21.5508 28.6588 21.4615C29.629 21.1272 30.1478 19.789 30.1928 18.9416" fill="#EFEFEF"/>
<path d="M40.0053 19.2984C39.9376 20.1459 39.306 19.7221 38.9678 19.566C38.291 19.2761 37.6141 19.0754 36.8247 19.0754C36.0351 19.0754 35.0201 19.1424 34.1404 19.3654C32.9224 19.6998 32.5613 19.6776 32.02 19.4099C31.4787 19.1199 30.5314 18.4062 30.5314 18.4062C30.5314 18.4062 30.5088 18.6294 30.7343 18.9193C31.0274 19.2761 31.6818 19.7221 32.5614 20.0119C32.99 20.1459 33.3284 20.0566 33.712 19.9674C35.7196 19.4768 37.8398 19.3876 39.6219 20.458C39.7122 20.5027 40.028 20.3687 40.1634 20.1681C40.3436 19.8783 40.0053 19.2984 40.0053 19.2984Z" fill="black" fill-opacity="0.95"/>
<path d="M29.7417 27.7954C29.9222 27.907 30.1477 27.974 30.3958 28.1746C30.3958 28.1746 30.1929 28.1746 30.1027 28.0855C29.9898 28.0185 29.7643 27.8179 29.7417 27.7954Z" fill="#001423"/>
<path d="M36.2608 10.1098C36.1931 9.90916 35.6968 9.55225 34.5465 9.55225C33.3058 9.55225 32.9448 9.93135 32.9225 10.1321C32.9225 10.1991 32.8321 10.9128 32.8096 11.2026C32.8096 11.2026 32.8096 11.5595 32.8321 12.0947C32.8547 12.4515 32.9449 12.6523 32.9899 13.1207C33.0351 13.6111 33.1706 13.9235 33.4185 14.325C33.5314 14.3918 33.6216 14.4589 33.7343 14.4812C34.1855 14.5702 34.9751 14.5926 35.4037 14.4812C35.6518 14.4142 35.9676 13.9905 36.0352 13.6113C36.1255 13.143 36.2157 12.8084 36.2383 12.5185C36.2834 12.2287 36.306 11.5818 36.3284 11.4034C36.3962 10.9128 36.2833 10.1544 36.2607 10.1099" fill="#EFEFEF"/>
<path d="M33.8922 37.6758C33.8922 37.6758 35.0879 38.1887 38.0429 37.7426C38.0429 37.7426 37.2083 41.8909 37.5918 43.965C37.5918 43.965 37.9753 44.5004 40.8174 45.5262C40.8174 45.5262 42.0806 45.8385 42.0356 46.463C42.0356 46.463 42.0808 46.5969 40.5468 46.5522C39.013 46.5075 37.5691 46.2399 36.5542 46.2399C35.5391 46.2399 34.4563 46.2845 34.2759 45.9946C34.0728 45.727 34.321 45.0355 34.6142 44.6341C34.9303 44.2104 34.8398 43.8981 34.8174 43.1399C34.7494 41.1549 33.2155 39.1032 33.8922 37.6758Z" fill="black" fill-opacity="0.95"/>
<path d="M33.6443 38.0549C33.4862 38.278 33.6667 39.1254 33.8924 39.9507C34.1179 40.7757 34.6142 41.2665 34.7269 42.6269C34.8398 43.9649 34.8624 44.1435 34.4789 44.924C34.0953 45.7046 33.9825 46.4184 35.3133 46.4407C36.6441 46.463 37.3662 46.4184 38.7196 46.6192C40.073 46.8198 40.5468 46.8867 41.2912 46.7753C42.0356 46.6637 42.1934 46.4183 41.8777 46.1954C41.5619 45.9723 40.2534 45.727 39.6896 45.2808C39.1481 44.8794 37.6143 44.2104 37.5918 44.032C37.5241 43.4297 37.5015 41.2441 37.6144 40.5304C37.7272 39.8166 37.885 38.7908 37.9301 38.5232C37.9753 38.2556 38.2008 37.9878 37.8172 38.0771C37.4339 38.1661 35.9903 38.3671 34.9074 38.3001C33.8248 38.2333 33.7121 37.988 33.6443 38.0549Z" fill="#88CE02"/>
<path opacity="0.3" d="M34.411 44.9464C34.7944 45.1247 35.3585 45.2586 35.7869 45.2586C35.7869 45.2586 35.6289 45.9946 35.8773 46.4406C36.1252 46.8866 34.0726 46.6192 34.0726 46.6192L33.9824 45.0355L34.411 44.9464ZM40.3888 46.8643C40.7496 46.7527 40.9978 46.3514 40.7046 45.9723C40.3888 45.5931 40.1181 45.5262 40.524 45.5039C40.9301 45.4816 42.4189 46.3737 42.4189 46.3737L41.6518 47.0651L40.3888 46.8643ZM33.5763 38.9245C34.0952 39.1031 34.8846 39.1476 35.5614 39.1252C36.2382 39.1029 37.2532 39.0136 37.9074 38.7907C38.5615 38.5677 38.2909 39.036 38.2909 39.036L37.9299 39.3705C37.9299 39.3705 37.0728 39.7051 35.6743 39.6829C34.0276 39.6606 33.5312 39.4822 33.5312 39.4822L33.5763 38.9245ZM33.6214 40.0397C34.1403 40.2183 34.9296 40.2628 35.6064 40.2405C36.2831 40.2182 37.1856 40.2182 37.8397 39.9729C38.1104 39.8836 37.9526 40.2628 37.9526 40.2628L37.8397 40.4635C37.8397 40.4635 36.9599 40.7757 35.5839 40.7533C33.9373 40.7311 33.644 40.5971 33.644 40.5971L33.6214 40.0397Z" fill="black" fill-opacity="0.95"/>
<path d="M32.1328 24.4058C32.1328 24.562 33.8923 25.4316 34.8622 25.61C35.8323 25.7885 37.8625 25.61 38.1782 25.5432L38.133 25.8555C38.133 25.8555 35.7194 26.2124 33.8697 25.7217C32.0201 25.2309 32.2231 25.1194 32.2231 25.1194L32.1328 24.4058Z" fill="black" fill-opacity="0.95"/>
<path d="M28.3658 43.4297C28.6364 43.5636 29.6065 43.8088 30.238 43.675C30.3282 43.6526 30.238 42.136 30.4862 41.4447C30.8471 40.4856 31.4336 39.7051 31.7041 38.0101C30.7568 37.9208 29.6741 37.6755 29.11 37.4971C28.3883 39.6828 28.6366 41.5562 28.3658 43.4297ZM29.8773 44.8347C30.0352 44.8794 30.1478 45.0577 30.1931 44.9463C30.2832 44.7454 30.0351 44.3665 30.0125 44.0988V44.0765C29.8096 43.8982 28.4336 43.8759 28.5238 43.9649C28.3659 44.2548 28.1178 44.2103 28.0276 44.7902C27.9826 45.08 28.3436 44.8348 28.6817 44.8125C28.0728 45.2138 27.3735 45.727 27.2606 46.1729C27.1253 46.7973 27.3509 46.9759 28.0276 47.3105C28.6142 47.4443 29.3134 47.4666 29.8547 47.4443C30.4638 47.3327 30.5767 47.0429 30.3962 46.6413C30.1253 46.0391 29.9449 45.2586 29.8773 44.8347Z" fill="#EFEFEF"/>
<path d="M30.1253 15.8638C30.8696 16.2875 31.9073 16.176 32.2906 16.1537C32.381 16.1537 33.2833 15.9976 33.3283 16.0198C33.4186 16.0421 33.4186 16.1091 33.4186 16.1091C33.4186 16.1091 33.0802 16.2874 32.3132 16.332C31.5914 16.3765 30.7342 16.332 30.2606 16.1091C29.6966 15.8638 30.1253 15.8638 30.1253 15.8638ZM37.7948 16.2875C37.93 16.3767 38.8099 16.7113 39.1933 17.1127C39.5317 17.4696 39.3514 17.4473 39.2835 17.3581C39.1933 17.2465 38.4939 16.7781 38.2234 16.6667C37.9527 16.5551 37.6142 16.3545 37.6142 16.3098C37.6142 16.2652 37.7948 16.2875 37.7948 16.2875Z" fill="black" fill-opacity="0.95"/>
<path d="M30.0122 25.543C30.6663 25.4983 31.3429 25.6546 31.7717 26.1005C31.9972 26.3236 32.3582 26.5688 32.313 26.7919C32.313 26.8589 32.1775 27.0373 32.065 27.1711C31.9973 27.2601 31.7944 27.4609 31.7265 27.5279C31.6365 27.5949 31.3205 27.8402 31.2529 27.8848C31.1852 27.9295 31.0948 28.0411 31.0272 28.0633C30.8019 28.1749 30.5536 28.0856 30.3281 27.9741C30.1026 27.8626 30.3733 27.8402 30.125 27.6618C29.5161 27.2381 29.1776 26.948 29.4258 26.1228C29.4484 25.9667 29.6963 25.7883 30.0122 25.543Z" fill="#EFEFEF"/>
<path opacity="0.4" d="M24.2602 20.4358C22.23 21.2386 17.0644 23.7812 15.5981 24.5619C16.8162 25.3201 17.3801 27.1488 17.5607 29C17.5832 29.1786 17.6057 29.3346 17.6283 29.5129C17.6509 29.6691 17.6734 29.7807 17.6959 29.8476C17.6959 29.87 17.6959 29.9146 17.7185 29.9367C19.0494 26.346 23.8089 22.5545 23.9894 22.2646C24.0797 22.1308 23.8765 21.5509 24.1924 20.9935C24.5986 20.2796 25.3882 19.9672 24.2602 20.4358ZM29.0875 37.2743C30.125 35.2225 30.1476 33.2598 30.125 30.9626C30.125 30.0035 30.8243 28.6431 30.4634 29.0222C29.1101 30.5164 25.7038 33.3266 23.2451 33.4828C26.6964 33.3712 28.0498 35.0886 29.0875 37.2743Z" fill="black" fill-opacity="0.95"/>
<path d="M13.6128 26.4578C14.8986 25.5435 21.553 22.042 23.1547 21.5513C24.7562 21.0382 24.2598 20.436 24.2598 20.436C24.2598 20.436 17.7633 23.2015 13.8835 25.588" fill="black" fill-opacity="0.95"/>
<path opacity="0.4" d="M32.561 20.0122C32.0423 19.8114 31.6362 20.4136 31.7716 20.9935C31.9069 21.5733 33.1249 22.2201 33.0572 24.3389C33.0122 26.0786 32.6288 26.7921 32.6288 26.7921L31.7716 25.7218C31.7716 25.7218 31.6361 23.313 31.343 22.9561C31.0497 22.5993 30.1248 21.9524 29.7639 21.618C29.403 21.2834 30.1699 20.8373 30.1248 20.2129C30.0797 19.6107 30.5084 18.4063 30.5084 18.4063L32.561 20.0122ZM35.6965 29.5131C35.6514 31.1856 36.0351 33.6612 36.1928 34.8435C36.3508 36.0254 36.5538 36.1147 36.1928 36.6501C35.8319 37.163 35.3582 38.0105 35.3582 38.0105L33.8016 37.8765C33.8016 37.8765 35.0424 36.3153 35.1098 36.0254C35.1776 35.7356 34.4783 33.5277 34.4783 33.5277L35.6965 29.5131ZM32.6965 13.9012C33.0123 14.5925 33.3957 14.9047 34.0047 15.1055C34.3657 15.2395 35.7868 15.4178 36.3507 14.7933C36.5988 14.5033 36.441 13.7227 36.441 13.7227L35.1551 14.7486L33.4182 14.4363L33.2153 13.9234L32.6965 13.9012Z" fill="black" fill-opacity="0.95"/>
<path d="M32.8317 15.4399C33.4182 15.819 34.8845 16.176 35.2905 16.2428C35.6965 16.332 36.3507 15.819 36.6664 15.6852C37.005 15.5291 37.5915 15.4399 38.2681 16.0421C38.3359 16.1091 38.1101 16.3989 38.1101 16.3989C38.0875 16.3766 37.9523 16.3766 37.7717 16.2873C37.5913 16.1983 37.4334 16.1312 37.1627 16.1536C36.0348 16.2873 35.8544 16.6665 34.8619 16.4434C33.8694 16.2203 33.6213 16.042 32.6514 16.0865" fill="#88CE02"/>
<path d="M32.8317 15.4399C33.4182 15.819 34.8845 16.176 35.2905 16.2428C35.6965 16.332 36.3507 15.819 36.6664 15.6852C37.005 15.5291 37.5915 15.4399 38.2681 16.0421C38.3359 16.1091 38.1101 16.3989 38.1101 16.3989C38.0875 16.3766 37.9523 16.3766 37.7717 16.2873C37.5913 16.1983 37.4334 16.1312 37.1627 16.1536C36.0348 16.2873 35.8544 16.6665 34.8619 16.4434C33.8694 16.2203 33.6213 16.042 32.6514 16.0865" stroke="black" stroke-opacity="0.95" stroke-width="1.586" stroke-linejoin="round"/>
<path d="M32.6289 15.5068C33.3733 15.8191 34.817 16.1537 35.223 16.2428C35.629 16.332 36.2831 15.9306 36.5989 15.7299C37.163 15.373 37.8847 15.663 38.2232 16.0422C38.4486 16.2874 38.539 16.4436 38.539 16.5105C38.539 16.5996 38.2684 16.5105 38.2684 16.5105C38.1103 16.4435 37.9298 16.4213 37.7946 16.3319C37.6141 16.2428 37.4336 16.109 37.1631 16.1312C36.0351 16.2652 35.8096 16.6443 34.8397 16.4212C33.8697 16.1981 33.6215 15.9974 32.584 16.0643" fill="#88CE02"/>
<path d="M29.1323 36.3374C29.0871 36.2928 29.1774 36.2482 29.1323 36.2482C28.8392 36.2482 28.433 36.0252 28.2074 35.7129C27.2374 34.3302 25.8162 33.4159 23.2447 33.4827C19.3874 33.572 17.8534 32.0108 17.5603 29.0223C17.4023 27.3942 16.9512 25.8106 16.0263 24.9185L15.4849 25.253C16.5225 26.1452 16.8609 27.5949 17.0866 29.5798C17.4474 32.5684 19.8836 33.9512 22.7258 33.9957C25.6809 34.0404 26.7411 34.6426 27.8464 36.1146C28.2072 36.5829 28.6134 36.739 28.9291 36.806L29.1323 36.3374Z" fill="black" fill-opacity="0.95"/>
<path opacity="0.4" d="M39.5994 21.9971C39.6671 22.3315 39.8475 22.9784 40.2083 23.2905C40.3664 23.4466 40.389 23.4912 40.2535 23.4912C40.118 23.4912 39.1257 23.4466 39.1257 23.4466L38.855 22.9784L39.5994 21.9971Z" fill="black" fill-opacity="0.95"/>
</g>
<defs>
<clipPath id="clip0_141_507">
<rect width="34" height="39" fill="white" transform="translate(9 9)"/>
</clipPath>
</defs>
</svg>
