<svg width="52" height="56" viewBox="0 0 52 56" fill="none" xmlns="http://www.w3.org/2000/svg">
<path d="M39.8125 0H12.1875C5.45653 0 0 5.87626 0 13.125V42.875C0 50.1237 5.45653 56 12.1875 56H39.8125C46.5435 56 52 50.1237 52 42.875V13.125C52 5.87626 46.5435 0 39.8125 0Z" fill="#E14E1D"/>
<path d="M9.75049 8.3125L11.4994 29.4422H33.9874L33.2328 38.505L25.9922 40.6133L18.7652 38.5081L18.2819 32.6889H11.7696L12.7009 43.9066L25.9907 47.8818L39.2975 43.9066L41.0815 22.4558H17.4335L16.8398 15.3005H41.6693L42.2505 8.3125H9.75049Z" fill="white"/>
<path d="M26.0005 8.3125H9.75049L11.4994 29.4422H26.0005V22.4558H17.4335L16.8398 15.3005H26.0005V8.3125ZM26.0005 40.6103L25.9922 40.6133L18.7652 38.5081L18.2819 32.6889H11.7696L12.7009 43.9066L25.9907 47.8818L26.0007 47.8787L26.0005 40.6103Z" fill="#EBEBEB"/>
</svg>
