<svg width="57" height="56" viewBox="0 0 57 56" fill="none" xmlns="http://www.w3.org/2000/svg">
<g clip-path="url(#clip0_141_463)">
<path d="M0.166504 0H56.1665V56H0.166504V0Z" fill="#F7DF1E"/>
<path d="M12.8913 44.7979L17.1766 42.2043C18.0035 43.6702 18.7556 44.9105 20.5596 44.9105C22.2888 44.9105 23.3793 44.2341 23.3793 41.603V23.7097H28.6418V41.6774C28.6418 47.128 25.4467 49.609 20.7851 49.609C16.5753 49.609 14.1316 47.4288 12.8911 44.7974M31.5002 44.2339L35.785 41.7531C36.9131 43.5952 38.3792 44.9483 40.9727 44.9483C43.1534 44.9483 44.5438 43.8581 44.5438 42.3544C44.5438 40.5502 43.1154 39.911 40.7095 38.8588L39.3942 38.2944C35.5974 36.6785 33.0789 34.6485 33.0789 30.3632C33.0789 26.4161 36.086 23.4087 40.785 23.4087C44.1306 23.4087 46.5364 24.5742 48.2654 27.619L44.1678 30.2505C43.2654 28.6342 42.2885 27.9952 40.7848 27.9952C39.2435 27.9952 38.2661 28.9726 38.2661 30.2505C38.2661 31.8293 39.2435 32.4687 41.4988 33.446L42.8144 34.0098C47.2878 35.9271 49.8063 37.8816 49.8063 42.2794C49.8063 47.0162 46.0849 49.6097 41.0854 49.6097C36.1987 49.6097 33.041 47.2791 31.5 44.2341" fill="black"/>
</g>
<defs>
<clipPath id="clip0_141_463">
<rect x="0.166504" width="56" height="56" rx="15.8854" fill="white"/>
</clipPath>
</defs>
</svg>
