<svg width="56" height="56" viewBox="0 0 56 56" fill="none" xmlns="http://www.w3.org/2000/svg">
<g clip-path="url(#clip0_141_452)">
<path d="M42.875 0H13.125C5.87626 0 0 5.87626 0 13.125V42.875C0 50.1237 5.87626 56 13.125 56H42.875C50.1237 56 56 50.1237 56 42.875V13.125C56 5.87626 50.1237 0 42.875 0Z" fill="#242938"/>
<path d="M26.5672 6.13703C26.4731 6.14556 26.1737 6.17553 25.9042 6.19675C19.6903 6.75696 13.8698 10.11 10.1833 15.2633C8.13072 18.1287 6.81756 21.3789 6.32166 24.8218C6.14644 26.0236 6.125 26.3786 6.125 28.0079C6.125 29.6373 6.14644 29.9924 6.32187 31.194C7.51056 39.4093 13.3569 46.312 21.2857 48.8694C22.7056 49.327 24.2023 49.6392 25.9044 49.8273C26.5674 49.8999 29.4326 49.8999 30.0956 49.8273C33.0337 49.5022 35.5226 48.7753 37.9774 47.5221C38.3537 47.3298 38.4265 47.2784 38.3751 47.2358C38.341 47.21 36.7371 45.0588 34.8128 42.4587L31.3145 37.7331L26.9307 31.2454C24.5188 27.6787 22.5345 24.7618 22.5173 24.7618C22.5002 24.7577 22.4831 27.6402 22.4746 31.1598C22.4617 37.3225 22.4575 37.5705 22.3805 37.7158C22.2694 37.9253 22.1839 38.0109 22.0041 38.1052C21.8673 38.1734 21.7475 38.1863 21.1017 38.1863H20.3619L20.165 38.0623C20.0432 37.9859 19.9441 37.8781 19.8785 37.7501L19.7888 37.5576L19.7975 28.9831L19.8102 20.4041L19.9428 20.2372C20.0112 20.1475 20.1567 20.032 20.2593 19.9765C20.4345 19.8909 20.503 19.8824 21.2428 19.8824C22.1154 19.8824 22.2607 19.9165 22.4875 20.1646C22.5516 20.2331 24.925 23.8083 27.7648 28.1148C30.6398 32.4739 33.5165 36.8317 36.395 41.1884L39.8591 46.436L40.0345 46.3205C41.5868 45.3112 43.2292 43.8742 44.5292 42.3773C47.2962 39.1998 49.0796 35.3253 49.6783 31.194C49.8536 29.9924 49.875 29.6373 49.875 28.0079C49.875 26.3786 49.8536 26.0236 49.6783 24.8218C48.4894 16.6064 42.6431 9.70396 34.7143 7.14656C33.3158 6.69309 31.8277 6.38093 30.1597 6.19281C29.7491 6.14993 26.9222 6.10312 26.5674 6.13725M35.5226 19.3692C35.7278 19.4718 35.8947 19.6685 35.9546 19.8737C35.9888 19.985 35.9973 22.3628 35.9887 27.7213L35.9758 35.4108L34.6203 33.3322L33.2603 31.2539V25.6644C33.2603 22.0507 33.2773 20.0191 33.3029 19.9207C33.3714 19.6814 33.521 19.4932 33.7264 19.3819C33.9017 19.2922 33.966 19.2835 34.6373 19.2835C35.2704 19.2835 35.3815 19.2922 35.5226 19.3692Z" fill="white"/>
</g>
<defs>
<clipPath id="clip0_141_452">
<rect width="56" height="56" fill="white"/>
</clipPath>
</defs>
</svg>
