<svg width="52" height="56" viewBox="0 0 52 56" fill="none" xmlns="http://www.w3.org/2000/svg">
<g clip-path="url(#clip0_141_440)">
<path d="M39.8125 0H12.1875C5.45653 0 0 5.87626 0 13.125V42.875C0 50.1237 5.45653 56 12.1875 56H39.8125C46.5435 56 52 50.1237 52 42.875V13.125C52 5.87626 46.5435 0 39.8125 0Z" fill="#242938"/>
<path d="M26.0004 32.1454C28.0934 32.1454 29.7899 30.3182 29.7899 28.0644C29.7899 25.8106 28.0934 23.9834 26.0004 23.9834C23.9076 23.9834 22.2109 25.8106 22.2109 28.0644C22.2109 30.3182 23.9076 32.1454 26.0004 32.1454Z" fill="#00D8FF"/>
<path d="M26.0004 19.7671C31.0883 19.7671 35.8148 20.5533 39.3786 21.8747C43.6725 23.4666 46.3125 25.8796 46.3125 28.0647C46.3125 30.3417 43.5147 32.9052 38.9035 34.5504C35.4175 35.7942 30.8301 36.4435 26.0004 36.4435C21.0486 36.4435 16.3595 35.8341 12.834 34.5367C8.37383 32.8949 5.6875 30.2984 5.6875 28.0647C5.6875 25.8973 8.20828 23.5029 12.4418 21.9135C16.0188 20.5703 20.862 19.7671 25.9996 19.7671H26.0004Z" stroke="#00D8FF" stroke-width="4.84293"/>
<path d="M19.2927 23.9396C21.8346 19.1931 24.8281 15.1764 27.6714 12.5121C31.0969 9.30147 34.3571 8.04409 36.1145 9.13543C37.9461 10.2729 38.6105 14.1641 37.6305 19.2876C36.8901 23.161 35.12 27.7648 32.7071 32.2707C30.2333 36.8902 27.4007 40.9603 24.5961 43.6002C21.0473 46.9409 17.6163 48.1499 15.8197 47.0341C14.0763 45.9522 13.4096 42.4038 14.2461 37.6602C14.9528 33.6521 16.7263 28.7326 19.2919 23.9396H19.2927Z" stroke="#00D8FF" stroke-width="4.84293"/>
<path d="M19.2992 32.2828C16.7502 27.5416 15.0147 22.7418 14.2903 18.7584C13.4183 13.9588 14.0348 10.2893 15.7908 9.19463C17.6208 8.05363 21.0826 9.37706 24.7149 12.8504C27.4612 15.4762 30.2812 19.4262 32.701 23.9277C35.182 28.5428 37.0414 33.2186 37.7647 37.1535C38.68 42.1331 37.9392 45.9378 36.1442 47.0567C34.4026 48.1426 31.2153 46.9931 27.8168 43.8435C24.9455 41.1827 21.8734 37.0713 19.2992 32.2828Z" stroke="#00D8FF" stroke-width="4.84293"/>
</g>
<defs>
<clipPath id="clip0_141_440">
<rect width="52" height="56" fill="white"/>
</clipPath>
</defs>
</svg>
