<svg width="57" height="56" viewBox="0 0 57 56" fill="none" xmlns="http://www.w3.org/2000/svg">
<g clip-path="url(#clip0_141_467)">
<path d="M43.7085 0H13.9585C6.70976 0 0.833496 5.87626 0.833496 13.125V42.875C0.833496 50.1237 6.70976 56 13.9585 56H43.7085C50.9572 56 56.8335 50.1237 56.8335 42.875V13.125C56.8335 5.87626 50.9572 0 43.7085 0Z" fill="#CD6799"/>
<mask id="mask0_141_467" style="mask-type:luminance" maskUnits="userSpaceOnUse" x="6" y="11" width="45" height="34">
<path d="M6.9585 11.5938H50.7085V44.3863H6.9585V11.5938Z" fill="white"/>
</mask>
<g mask="url(#mask0_141_467)">
<path d="M44.607 30.4421C43.0814 30.45 41.7558 30.8175 40.6456 31.3604C40.2383 30.5539 39.831 29.8351 39.759 29.3079C39.6792 28.693 39.5834 28.3176 39.6792 27.5828C39.775 26.848 40.2064 25.802 40.1983 25.7221C40.1904 25.6421 40.1025 25.2669 39.224 25.2588C38.3455 25.2509 37.5868 25.4266 37.4989 25.6583C37.411 25.8897 37.2434 26.4169 37.1316 26.96C36.9798 27.7587 35.3744 30.6099 34.4561 32.1033C34.1606 31.5203 33.9051 31.0091 33.8491 30.6018C33.7692 29.9869 33.6734 29.6115 33.7692 28.8767C33.865 28.1419 34.2964 27.0957 34.2883 27.0158C34.2804 26.936 34.1925 26.5606 33.314 26.5527C32.4355 26.5446 31.6767 26.7203 31.5889 26.9519C31.501 27.1836 31.4052 27.7268 31.2214 28.2537C31.0379 28.7809 28.9055 33.5409 28.3464 34.7707C28.1205 35.2684 27.8835 35.761 27.6357 36.2482C27.6357 36.2482 27.6276 36.2722 27.6037 36.312C27.5258 36.4648 27.4459 36.6166 27.364 36.7673V36.7754C27.2443 36.991 27.1164 37.1905 27.0525 37.1905C27.0046 37.1905 26.9169 36.6157 27.0685 35.833C27.3881 34.1797 28.1467 31.608 28.1388 31.5203C28.1388 31.4724 28.2825 31.0251 27.6436 30.7934C27.0206 30.5618 26.797 30.9452 26.741 30.9452C26.6852 30.9452 26.6452 31.0811 26.6452 31.0811C26.6452 31.0811 27.3402 28.1898 25.3196 28.1898C24.0576 28.1898 22.3166 29.5715 21.4542 30.8175C20.4736 31.351 19.4939 31.8861 18.5149 32.4227C18.0439 32.6863 17.5568 32.9499 17.1013 33.1975C17.0694 33.1655 17.0375 33.1255 17.0055 33.0936C14.5617 30.4819 10.0414 28.6372 10.233 25.1311C10.305 23.8531 10.7442 20.4988 18.9143 16.4257C25.6389 13.1114 30.99 14.0297 31.9164 16.0663C33.242 18.9735 29.0492 24.3722 22.1011 25.1549C19.4494 25.4504 18.0599 24.4282 17.7086 24.045C17.3411 23.6455 17.2851 23.6217 17.1492 23.7015C16.9257 23.8212 17.0694 24.1806 17.1492 24.3882C17.3571 24.9313 18.2115 25.8897 19.657 26.3609C20.9349 26.7763 24.0416 27.0079 27.8032 25.5543C32.0122 23.9251 35.3027 19.3965 34.3362 15.6032C33.37 11.7536 26.9807 10.4838 20.9349 12.6321C17.3409 13.9101 13.4436 15.9226 10.6403 18.5421C7.30987 21.6571 6.7829 24.3644 6.99859 25.4984C7.77319 29.5236 13.3237 32.1431 15.5441 34.0839C15.4323 34.1477 15.3284 34.2037 15.2407 34.2516C14.1305 34.8027 9.89769 37.0149 8.84331 39.3551C7.64544 42.0065 9.03516 43.9073 9.95347 44.1628C12.8047 44.9535 15.7357 43.5319 17.3092 41.1838C18.8824 38.8358 18.6908 35.7851 17.9639 34.3875C17.9561 34.3698 17.9453 34.3536 17.9319 34.3396C18.2196 34.1718 18.5149 33.9961 18.8026 33.8284C19.3311 33.516 19.8663 33.2151 20.4077 32.9258C20.1363 33.6687 19.9366 34.555 19.8407 35.833C19.7211 37.3345 20.336 39.2831 21.1425 40.0498C21.5019 40.3852 21.9252 40.3933 22.1969 40.3933C23.1393 40.3933 23.5626 39.6106 24.0337 38.6842C24.6086 37.5499 25.1279 36.2322 25.1279 36.2322C25.1279 36.2322 24.4809 39.7943 26.2379 39.7943C26.8768 39.7943 27.5237 38.9637 27.8113 38.5404V38.5483C27.8113 38.5483 27.8273 38.5245 27.8592 38.4685C27.9231 38.3646 27.9629 38.3007 27.9629 38.3007V38.2847C28.2187 37.8376 28.7935 36.8233 29.6482 35.138C30.7502 32.9658 31.8125 30.2505 31.8125 30.2505C31.8125 30.2505 31.9083 30.9133 32.2358 32.0153C32.4274 32.6624 32.8268 33.3731 33.1462 34.06C32.8907 34.4194 32.731 34.6189 32.731 34.6189L32.7389 34.627C32.5313 34.8985 32.3077 35.194 32.0601 35.4814C31.1895 36.5198 30.1513 37.7099 30.0076 38.0533C29.8398 38.4606 29.8798 38.7559 30.1992 38.9957C30.4309 39.1713 30.8461 39.1952 31.2693 39.1713C32.052 39.1153 32.6033 38.9237 32.8747 38.8038C33.298 38.6522 33.7933 38.4206 34.2564 38.0771C35.111 37.4463 35.6301 36.5437 35.5822 35.3537C35.5582 34.6988 35.3425 34.044 35.0791 33.4289C35.1589 33.3171 35.2307 33.2053 35.3105 33.0936C36.6604 31.1209 37.7065 28.9566 37.7065 28.9566C37.7065 28.9566 37.8023 29.6194 38.1298 30.7217C38.2895 31.2806 38.6169 31.8876 38.9046 32.4787C37.6348 33.509 36.8521 34.7069 36.5725 35.4895C36.0694 36.9431 36.4607 37.5978 37.2034 37.7497C37.5389 37.8216 38.018 37.6619 38.3695 37.5101C38.8167 37.3664 39.3438 37.1188 39.847 36.7513C40.7014 36.1204 41.5241 35.2419 41.4762 34.0519C41.4522 33.509 41.3084 32.9737 41.1087 32.4546C42.1869 32.0075 43.5767 31.7598 45.3496 31.9674C49.1513 32.4148 49.902 34.7867 49.7581 35.7851C49.6144 36.7832 48.8157 37.3264 48.5521 37.4942C48.2887 37.6619 48.2008 37.7177 48.2249 37.8376C48.2568 38.0133 48.3846 38.0052 48.6081 37.9732C48.9196 37.9174 50.6047 37.1667 50.6766 35.3298C50.7965 32.9818 48.5602 30.418 44.607 30.4421ZM15.2805 40.3294C14.0187 41.7029 12.2617 42.2222 11.5029 41.783C10.6882 41.3116 11.0076 39.2831 12.5572 37.8295C13.4994 36.9431 14.7135 36.1204 15.52 35.6173C15.7037 35.5055 15.9752 35.3458 16.3027 35.1461C16.3587 35.1142 16.3906 35.0982 16.3906 35.0982L16.5822 34.9783C17.1492 37.0549 16.6061 38.8839 15.2805 40.3294ZM24.4651 34.0839C24.0259 35.1542 23.1076 37.8934 22.5484 37.7418C22.0694 37.6138 21.7738 35.5374 22.4526 33.4849C22.7961 32.4546 23.5227 31.2248 23.946 30.7455C24.6329 29.9788 25.3915 29.7233 25.5753 30.0348C25.8069 30.4421 24.7368 33.4129 24.4651 34.0839ZM32.0444 37.7098C31.8606 37.8057 31.685 37.8695 31.6051 37.8216C31.5491 37.7897 31.685 37.6619 31.685 37.6619C31.685 37.6619 32.6354 36.6395 33.0108 36.1764C33.2263 35.9047 33.482 35.5853 33.7535 35.2259V35.3298C33.7535 36.5518 32.5716 37.3743 32.0444 37.7098ZM37.8905 36.3759C37.7546 36.2801 37.7787 35.9607 38.2339 34.9623C38.4096 34.571 38.825 33.9163 39.5357 33.2852C39.6155 33.5409 39.6715 33.7883 39.6634 34.02C39.6556 35.5615 38.5533 36.1364 37.8905 36.3759Z" fill="white"/>
</g>
</g>
<defs>
<clipPath id="clip0_141_467">
<rect width="56" height="56" fill="white" transform="translate(0.833496)"/>
</clipPath>
</defs>
</svg>
