<svg width="57" height="56" viewBox="0 0 57 56" fill="none" xmlns="http://www.w3.org/2000/svg">
<g clip-path="url(#clip0_158_1548)">
<path d="M43.375 0H13.625C6.37626 0 0.5 5.87626 0.5 13.125V42.875C0.5 50.1237 6.37626 56 13.625 56H43.375C50.6237 56 56.5 50.1237 56.5 42.875V13.125C56.5 5.87626 50.6237 0 43.375 0Z" fill="#F4F2ED"/>
<path fill-rule="evenodd" clip-rule="evenodd" d="M18.6562 24.0625C19.9688 18.8125 23.2502 16.1875 28.5 16.1875C36.375 16.1875 37.3594 22.0938 41.2969 23.0781C43.9221 23.7346 46.2188 22.7502 48.1875 20.125C46.8752 25.3748 43.5935 28 38.3438 28C30.4688 28 29.4844 22.0938 25.5469 21.1094C22.9217 20.4531 20.625 21.4375 18.6562 24.0625ZM8.8125 35.875C10.125 30.6252 13.4062 28 18.6562 28C26.5312 28 27.5156 33.9062 31.4531 34.8906C34.0783 35.5471 36.375 34.5627 38.3438 31.9375C37.0315 37.1873 33.7498 39.8125 28.5 39.8125C20.625 39.8125 19.6406 33.9062 15.7031 32.9219C13.0781 32.2654 10.7812 33.2498 8.8125 35.875Z" fill="url(#paint0_linear_158_1548)"/>
</g>
<defs>
<linearGradient id="paint0_linear_158_1548" x1="19.4219" y1="16.1875" x2="36.2656" y2="40.5781" gradientUnits="userSpaceOnUse">
<stop stop-color="#32B1C1"/>
<stop offset="1" stop-color="#14C6B7"/>
</linearGradient>
<clipPath id="clip0_158_1548">
<rect width="56" height="56" fill="white" transform="translate(0.5)"/>
</clipPath>
</defs>
</svg>
