<svg width="52" height="56" viewBox="0 0 52 56" fill="none" xmlns="http://www.w3.org/2000/svg">
<path d="M39.8125 0H12.1875C5.45653 0 0 5.87626 0 13.125V42.875C0 50.1237 5.45653 56 12.1875 56H39.8125C46.5435 56 52 50.1237 52 42.875V13.125C52 5.87626 46.5435 0 39.8125 0Z" fill="#007ACC"/>
<path d="M11.4989 28.1855L11.4824 30.4789H18.2505V51.1899H23.0382V30.4789H29.8063V28.2299C29.8063 26.9855 29.7817 25.9455 29.7486 25.9188C29.7239 25.8834 25.6051 25.8655 20.6115 25.8744L11.5239 25.9011L11.4989 28.1855ZM41.9587 25.8359C43.2792 26.1916 44.2863 26.8227 45.2107 27.8537C45.6895 28.4049 46.3992 29.4094 46.4571 29.6494C46.4735 29.7205 44.2119 31.3561 42.8419 32.2716C42.7923 32.3072 42.5941 32.076 42.3712 31.7205C41.7027 30.6716 41.0012 30.2182 39.928 30.1383C38.3516 30.0226 37.3364 30.9116 37.3447 32.396C37.3447 32.8316 37.4024 33.0893 37.5675 33.4449C37.9141 34.2182 38.558 34.6804 40.5803 35.6226C44.3027 37.3472 45.8957 38.4849 46.8863 40.1026C47.9923 41.9071 48.2399 44.7871 47.4888 46.9293C46.6635 49.2582 44.6164 50.8404 41.7357 51.3649C40.8443 51.5338 38.7312 51.5071 37.7739 51.3205C35.6856 50.9204 33.7047 49.8094 32.4831 48.3517C32.0043 47.7827 31.0716 46.2983 31.1295 46.1915C31.1541 46.1561 31.3688 46.0139 31.608 45.8627C31.8392 45.7205 32.7143 45.1783 33.5396 44.6627L35.0335 43.7293L35.3472 44.2271C35.7847 44.947 36.742 45.9338 37.3199 46.2626C38.9788 47.205 41.2571 47.0715 42.3796 45.9872C42.8583 45.516 43.0564 45.0271 43.0564 44.3072C43.0564 43.6582 42.982 43.3738 42.6684 42.8849C42.264 42.2628 41.4387 41.7382 39.0944 40.6449C36.412 39.4004 35.2564 38.6271 34.1999 37.4004C33.5891 36.6894 33.0112 35.5515 32.772 34.6004C32.5739 33.8094 32.5243 31.8271 32.6812 31.0271C33.2341 28.2361 35.1904 26.2894 38.0132 25.7115C38.9295 25.5249 41.0588 25.596 41.9587 25.8359Z" fill="white"/>
</svg>
