<svg width="50" height="50" viewBox="0 0 50 50" fill="none" xmlns="http://www.w3.org/2000/svg">
<path d="M25.0003 35.4165C25.5906 35.4165 26.0857 35.2165 26.4857 34.8165C26.8857 34.4165 27.085 33.9221 27.0837 33.3332C27.0823 32.7443 26.8823 32.2498 26.4837 31.8498C26.085 31.4498 25.5906 31.2498 25.0003 31.2498C24.41 31.2498 23.9156 31.4498 23.517 31.8498C23.1184 32.2498 22.9184 32.7443 22.917 33.3332C22.9156 33.9221 23.1156 34.4172 23.517 34.8186C23.9184 35.22 24.4128 35.4193 25.0003 35.4165ZM22.917 27.0832H27.0837V14.5832H22.917V27.0832ZM25.0003 45.8332C22.1184 45.8332 19.4101 45.2859 16.8753 44.1915C14.3406 43.0971 12.1357 41.613 10.2607 39.7394C8.38574 37.8658 6.90172 35.6609 5.80866 33.1248C4.71561 30.5887 4.16838 27.8804 4.16699 24.9998C4.16561 22.1193 4.71283 19.4109 5.80866 16.8748C6.90449 14.3387 8.38852 12.1339 10.2607 10.2603C12.133 8.38664 14.3378 6.90262 16.8753 5.80817C19.4128 4.71373 22.1212 4.1665 25.0003 4.1665C27.8795 4.1665 30.5878 4.71373 33.1253 5.80817C35.6628 6.90262 37.8677 8.38664 39.7399 10.2603C41.6121 12.1339 43.0969 14.3387 44.1941 16.8748C45.2913 19.4109 45.8378 22.1193 45.8337 24.9998C45.8295 27.8804 45.2823 30.5887 44.192 33.1248C43.1017 35.6609 41.6177 37.8658 39.7399 39.7394C37.8621 41.613 35.6573 43.0978 33.1253 44.1936C30.5934 45.2894 27.885 45.8359 25.0003 45.8332ZM25.0003 41.6665C29.6531 41.6665 33.5941 40.0519 36.8232 36.8228C40.0524 33.5936 41.667 29.6526 41.667 24.9998C41.667 20.3471 40.0524 16.4061 36.8232 13.1769C33.5941 9.94775 29.6531 8.33317 25.0003 8.33317C20.3475 8.33317 16.4066 9.94775 13.1774 13.1769C9.94824 16.4061 8.33366 20.3471 8.33366 24.9998C8.33366 29.6526 9.94824 33.5936 13.1774 36.8228C16.4066 40.0519 20.3475 41.6665 25.0003 41.6665Z" fill="#FF0000"/>
</svg>
