<svg width="50" height="51" viewBox="0 0 50 51" fill="none" xmlns="http://www.w3.org/2000/svg">
<path d="M25 3.625C30.8016 3.625 36.3656 5.92968 40.468 10.032C44.5703 14.1344 46.875 19.6984 46.875 25.5C46.875 31.3016 44.5703 36.8656 40.468 40.968C36.3656 45.0703 30.8016 47.375 25 47.375C19.1984 47.375 13.6344 45.0703 9.53204 40.968C5.42968 36.8656 3.125 31.3016 3.125 25.5C3.125 19.6984 5.42968 14.1344 9.53204 10.032C13.6344 5.92968 19.1984 3.625 25 3.625ZM22.275 29.8156L17.4156 24.9531C17.2414 24.7789 17.0346 24.6407 16.807 24.5464C16.5794 24.4522 16.3354 24.4036 16.0891 24.4036C15.8427 24.4036 15.5987 24.4522 15.3711 24.5464C15.1435 24.6407 14.9367 24.7789 14.7625 24.9531C14.4107 25.305 14.213 25.7821 14.213 26.2797C14.213 26.7772 14.4107 27.2544 14.7625 27.6062L20.95 33.7938C21.1237 33.9688 21.3304 34.1078 21.558 34.2026C21.7857 34.2975 22.0299 34.3463 22.2766 34.3463C22.5232 34.3463 22.7674 34.2975 22.9951 34.2026C23.2228 34.1078 23.4294 33.9688 23.6031 33.7938L36.4156 20.9781C36.5922 20.8046 36.7326 20.5979 36.8288 20.3699C36.9251 20.1419 36.9752 19.897 36.9764 19.6495C36.9775 19.402 36.9297 19.1567 36.8355 18.9278C36.7414 18.6989 36.6029 18.4909 36.428 18.3158C36.2531 18.1406 36.0452 18.0019 35.8164 17.9075C35.5876 17.8131 35.3424 17.765 35.0949 17.7658C34.8474 17.7667 34.6025 17.8165 34.3743 17.9125C34.1462 18.0085 33.9393 18.1487 33.7656 18.325L22.275 29.8156Z" fill="#26F904"/>
</svg>
