<svg width="38" height="38" viewBox="0 0 38 38" fill="none" xmlns="http://www.w3.org/2000/svg">
<rect width="38" height="38" rx="19" fill="white"/>
<rect x="0.5" y="0.5" width="37" height="37" rx="18.5" stroke="#040615" stroke-opacity="0.12" stroke-linecap="square" stroke-dasharray="1 1"/>
<path d="M12.918 27.5432L16.533 25.6538V13.0572L21.6963 15.9538L17.8238 17.9693V22.1264L26.4728 27.9206V24.0158L21.1802 20.3633L25.5688 18.0954V14.0644L16.533 9.15234L12.918 11.0417V27.5432Z" fill="url(#paint0_linear_389_129)" fill-opacity="0.82"/>
<path d="M12.418 27.5432C12.418 27.7181 12.5093 27.8802 12.6589 27.9709C12.8085 28.0615 12.9946 28.0673 13.1496 27.9863L16.7645 26.097C16.9295 26.0107 17.033 25.84 17.033 25.6538V13.911L20.645 15.9373L17.593 17.5257C17.4276 17.6118 17.3238 17.7828 17.3238 17.9693V22.1264C17.3238 22.2932 17.4069 22.449 17.5455 22.5418L26.1946 28.336C26.3479 28.4388 26.5454 28.4487 26.7083 28.3617C26.8711 28.2748 26.9728 28.1052 26.9728 27.9206V24.0158C26.9728 23.8515 26.8921 23.6976 26.7568 23.6043L22.1499 20.425L25.7984 18.5396C25.9645 18.4538 26.0688 18.2824 26.0688 18.0954V14.0644C26.0688 13.8812 25.9686 13.7126 25.8076 13.6251L16.7718 8.71306C16.6254 8.63349 16.449 8.63205 16.3014 8.70922L12.6864 10.5986C12.5214 10.6848 12.418 10.8555 12.418 11.0417V27.5432Z" stroke="#040615" stroke-opacity="0.78" stroke-linecap="square" stroke-linejoin="round"/>
<defs>
<linearGradient id="paint0_linear_389_129" x1="12.918" y1="18.5365" x2="26.4728" y2="18.5365" gradientUnits="userSpaceOnUse">
<stop stop-color="#1B197B"/>
<stop offset="1" stop-color="#FF0000"/>
</linearGradient>
</defs>
</svg>
