<svg width="24" height="25" viewBox="0 0 24 25" fill="none" xmlns="http://www.w3.org/2000/svg">
<g clip-path="url(#clip0_126_247)">
<path d="M21.6557 0.635045C21.9258 0.831473 22.0363 1.09338 21.9872 1.42076L18.8444 20.2779C18.8035 20.5153 18.6725 20.6994 18.4515 20.8304C18.3369 20.8958 18.2101 20.9286 18.071 20.9286C17.9809 20.9286 17.8827 20.9081 17.7763 20.8672L12.215 18.596L9.24411 22.2176C9.09679 22.4059 8.89628 22.5 8.64256 22.5C8.53616 22.5 8.44614 22.4836 8.37248 22.4509C8.21697 22.3936 8.09216 22.2974 7.99804 22.1624C7.90392 22.0273 7.85686 21.878 7.85686 21.7143V17.4297L18.4638 4.42857L5.34017 15.7846L0.490931 13.7958C0.188109 13.6812 0.0244218 13.4561 -0.0001313 13.1205C-0.0165 12.7932 0.11445 12.5517 0.392718 12.3962L20.8209 0.610491C20.9437 0.53683 21.0746 0.5 21.2137 0.5C21.3774 0.5 21.5248 0.545015 21.6557 0.635045Z" fill="white"/>
</g>
<defs>
<clipPath id="clip0_126_247">
<rect width="24" height="24" fill="white" transform="translate(0 0.5)"/>
</clipPath>
</defs>
</svg>
