<svg width="37" height="36" viewBox="0 0 37 36" fill="none" xmlns="http://www.w3.org/2000/svg">
<path d="M6.25999 17.9998C6.25999 11.2318 11.732 5.75977 18.5 5.75977C25.268 5.75977 30.74 11.2318 30.74 17.9998C30.74 24.7678 25.268 30.2398 18.5 30.2398C11.732 30.2398 6.25999 24.7678 6.25999 17.9998ZM29.3 17.9998C29.3 12.0238 24.476 7.19977 18.5 7.19977C12.524 7.19977 7.69999 12.0238 7.69999 17.9998C7.69999 23.9758 12.524 28.7998 18.5 28.7998C24.476 28.7998 29.3 23.9758 29.3 17.9998Z" fill="#040615" fill-opacity="0.78"/>
<path d="M17.2758 23.9756L23.2518 17.9996L17.2758 12.0236L18.2838 11.0156L25.2678 17.9996L18.2838 24.9836L17.2758 23.9756Z" fill="#040615" fill-opacity="0.78"/>
<path d="M24.26 17.2798V18.7198H12.02V17.2798L24.26 17.2798Z" fill="#040615" fill-opacity="0.78"/>
</svg>
